<svg xmlns="http://www.w3.org/2000/svg" width="188" height="101" viewBox="0 0 188 101">
  <g fill="none" fill-rule="evenodd">
    <path fill="#12ABBC" fill-rule="nonzero" d="M61.1083712,2.42698807 L136.779109,0.787673292 C150.108826,0.498901152 161.148792,11.0706752 161.437564,24.4003915 C161.468817,25.8430196 161.370664,27.2855448 161.144285,28.7106431 C159.048813,41.9020469 146.656351,50.8970764 133.464947,48.8016038 C132.051383,48.5770571 130.660542,48.2274685 129.308802,47.756954 L57.8610038,22.8873649 C53.0522898,21.2135451 50.1336055,16.3350295 50.9324133,11.3063806 C51.7315549,6.27563009 56.0157387,2.53731378 61.1083712,2.42698807 Z M60.321973,20.1217703 C64.0834994,20.715777 67.6183529,18.1407855 68.2172892,14.3703659 C68.8162255,10.5999462 66.2524397,7.06187954 62.4909133,6.46787281 C58.7293869,5.87386609 55.1945335,8.44885756 54.5955971,12.2192772 C53.9966608,15.9896969 56.5604466,19.5277635 60.321973,20.1217703 Z M133.888683,44.4631685 C144.489349,46.1371874 154.451208,38.8803933 156.13912,28.2546652 C157.827031,17.628937 150.601817,7.6580219 140.001152,5.98400296 C129.400486,4.30998402 119.438626,11.5667781 117.750715,22.1925063 C116.062803,32.8182345 123.288018,42.7891496 133.888683,44.4631685 Z"/>
    <path fill="#0D2F3B" d="M0,39 C6.14803591,39.1676817 15.425589,39.2515213 27.8329375,39.2515213 C36.2065067,39.2515213 42.1597192,39.1676817 45.6927534,39 C45.3032851,43.8907164 45.1085538,48.236402 45.1085538,52.0371873 C45.1085538,54.7480415 45.1920101,56.927871 45.3589251,58.576741 L43.3976836,58.576741 C42.6465661,54.1890698 41.6311817,50.7097266 40.3515,48.1386072 C39.0718183,45.5674877 37.4931043,43.7300033 35.6153105,42.6260987 C33.7375167,41.5221942 31.4355152,40.9702502 28.7092368,40.9702502 L25.871696,40.9702502 C24.0912693,40.9702502 22.8046521,41.1169695 22.0118059,41.4104124 C21.2189596,41.7038554 20.6834487,42.2627861 20.405257,43.0872211 C20.1270653,43.9116561 19.9879716,45.246103 19.9879716,47.0906018 L19.9879716,68.7214334 L22.9924266,68.7214334 C26.0247158,68.7214334 28.3197627,67.5965855 29.877636,65.346856 C31.4355094,63.0971265 32.5204406,60.4352193 33.1324623,57.3610548 L35.0937037,57.3610548 C34.8989696,60.1836968 34.801604,62.8805371 34.801604,65.4516565 L34.8433325,69.5598377 C34.8433325,72.5501614 35.0241544,76.6163818 35.3858035,81.7586207 L33.3828335,81.7586207 C32.2144285,74.212944 28.7509942,70.4401623 22.9924266,70.4401623 L19.9879716,70.4401623 L19.9879716,90.1845842 C19.9879716,92.4762341 20.2244309,94.1460394 20.6973568,95.19405 C21.1702826,96.2420607 22.0257092,96.9477106 23.2636621,97.311021 C24.501615,97.6743313 26.4558822,97.869957 29.1265223,97.897904 L29.1265223,99.7843137 C22.1160922,99.616632 16.9000766,99.5327924 13.478319,99.5327924 C11.8369882,99.5327924 7.3442601,99.616632 0,99.7843137 L0,98.0655849 C1.89170336,97.981744 3.26873147,97.7581718 4.13112565,97.3948614 C4.99351983,97.031551 5.58466826,96.3608343 5.90458868,95.382691 C6.2245091,94.4045477 6.38446691,92.839542 6.38446691,90.6876268 L6.38446691,48.096687 C6.38446691,45.9447718 6.2245091,44.379766 5.90458868,43.4016227 C5.58466826,42.4234794 4.99351983,41.7527627 4.13112565,41.3894523 C3.26873147,41.026142 1.89170336,40.8025697 0,40.7187289 L0,39 Z M66.9613911,91.8194726 C66.9613911,93.4124488 67.1422129,94.6560695 67.5038621,95.5503719 C67.8655113,96.4446743 68.4357957,97.0734713 69.2147323,97.4367816 C69.993669,97.800092 71.0646909,97.9817444 72.4278301,97.9817444 L72.4278301,99.7843137 C66.75272,99.5607381 62.96937,99.448952 61.0776667,99.448952 C59.2694208,99.448952 55.305249,99.5607381 49.1850322,99.7843137 L49.1850322,97.9817444 C50.5481714,97.9817444 51.6261479,97.800092 52.4189942,97.4367816 C53.2118405,97.0734713 53.7821248,96.4446743 54.1298644,95.5503719 C54.477604,94.6560695 54.6514712,93.4124488 54.6514712,91.8194726 L54.6514712,64.7390128 C54.6514712,62.0840525 54.2480993,60.1627285 53.4413435,58.9749831 C52.6345876,57.7872377 51.2158314,57.1933739 49.1850322,57.1933739 L49.1850322,55.3908046 C50.9932781,55.5584863 52.7597687,55.6423259 54.484557,55.6423259 C59.5198263,55.6423259 63.6787294,55.2510745 66.9613911,54.4685598 L66.9613911,91.8194726 Z M116.615383,93.7058824 C117.533416,95.019389 118.333205,96.0254642 119.014775,96.7241379 C119.696344,97.4228117 120.496133,97.8420097 121.414166,97.9817444 L121.414166,99.7843137 C116.851822,99.5607381 113.805669,99.448952 112.275615,99.448952 C110.634284,99.448952 106.920481,99.5607381 101.134094,99.7843137 L101.134094,97.9817444 C102.024308,97.9817444 102.726731,97.8280385 103.241386,97.520622 C103.75604,97.2132056 104.013364,96.7940076 104.013364,96.2630156 C104.013364,95.8997052 103.888179,95.4944805 103.637807,95.0473293 L94.707899,81.7586207 L91.7451725,85.5314402 C89.8534692,87.9907718 88.9076317,90.2684141 88.9076317,92.3644354 C88.9076317,93.9853586 89.4640067,95.3058322 90.5767733,96.3258959 C91.68954,97.3459596 93.1917525,97.9258501 95.0834559,98.0655849 L95.0834559,99.7843137 C91.7451558,99.616632 87.6418902,99.5327924 82.773536,99.5327924 C80.436726,99.5327924 78.4476854,99.616632 76.8063545,99.7843137 L76.8063545,98.0655849 C78.058217,97.6184336 79.2891967,96.8778506 80.4993305,95.8438134 C81.7094642,94.8097762 83.0656283,93.3425833 84.5678633,91.4421907 L93.706414,80.2494929 L81.1461229,61.5111562 C80.0889945,59.9740739 79.2405227,58.8981324 78.6006818,58.2832995 C77.960841,57.6684666 77.2097347,57.3051617 76.3473406,57.1933739 L76.3473406,55.3908046 C81.3547906,55.6143802 84.7486781,55.7261663 86.5291048,55.7261663 C88.0313398,55.7261663 91.3974085,55.6143802 96.6274119,55.3908046 L96.6274119,57.1933739 C95.7650177,57.1933739 95.0625943,57.3470798 94.5201206,57.6544963 C93.9776468,57.9619127 93.706414,58.3811107 93.706414,58.9121028 C93.706414,59.2754131 93.8455077,59.6806378 94.1236994,60.127789 L102.177308,72.1588911 L105.432134,67.8411089 C107.407295,65.2699894 108.394861,63.0761867 108.394861,61.2596349 C108.394861,60.057916 107.956715,59.0937607 107.080412,58.36714 C106.204108,57.6405192 104.917491,57.2213213 103.220522,57.1095335 L103.220522,55.3908046 C106.503183,55.5584863 109.716249,55.6423259 112.859815,55.6423259 C115.280082,55.6423259 117.296942,55.5584863 118.910453,55.3908046 L118.910453,57.1095335 C116.518005,57.919995 113.903042,60.127771 111.065487,63.7329277 L103.178793,73.6680189 L116.615383,93.7058824 Z M143.803529,91.8194726 C143.803529,93.4124488 143.984351,94.6560695 144.346,95.5503719 C144.707649,96.4446743 145.277934,97.0734713 146.05687,97.4367816 C146.835807,97.800092 147.906829,97.9817444 149.269968,97.9817444 L149.269968,99.7843137 C143.594858,99.5607381 139.811508,99.448952 137.919805,99.448952 C136.111559,99.448952 132.147387,99.5607381 126.02717,99.7843137 L126.02717,97.9817444 C127.39031,97.9817444 128.468286,97.800092 129.261132,97.4367816 C130.053979,97.0734713 130.624263,96.4446743 130.972003,95.5503719 C131.319742,94.6560695 131.493609,93.4124488 131.493609,91.8194726 L131.493609,64.7390128 C131.493609,62.0840525 131.090237,60.1627285 130.283482,58.9749831 C129.476726,57.7872377 128.05797,57.1933739 126.02717,57.1933739 L126.02717,55.3908046 C127.835416,55.5584863 129.601907,55.6423259 131.326695,55.6423259 C136.361964,55.6423259 140.520868,55.2510745 143.803529,54.4685598 L143.803529,91.8194726 Z M164.006088,73.2488168 C163.922631,74.0872253 163.880903,75.4286588 163.880903,77.2731575 C163.880903,81.0739428 164.409459,84.2249142 165.466587,86.7261663 C166.523716,89.2274184 167.893789,91.0579162 169.576849,92.2177147 C171.259908,93.3775131 173.061172,93.9574037 174.980695,93.9574037 C179.682134,93.9574037 183.451575,91.6657881 186.28913,87.0824882 L187.791357,87.5855308 C187.068059,89.9330746 185.948354,92.1198907 184.43221,94.1460446 C182.916065,96.1721985 180.996571,97.8210439 178.673671,99.0926302 C176.35077,100.364216 173.701035,101 170.724384,101 C166.801881,101 163.359311,100.161604 160.39657,98.484787 C157.433828,96.80797 155.124872,94.257849 153.469632,90.8343475 C151.814391,87.4108461 150.986783,83.1559867 150.986783,78.0696416 C150.986783,72.8715088 151.876983,68.49089 153.65741,64.9276538 C155.437837,61.3644176 157.899796,58.6885372 161.043362,56.8999324 C164.186928,55.1113275 167.817275,54.2170385 171.934511,54.2170385 C182.644891,54.2170385 188,60.5609012 188,73.2488168 L164.006088,73.2488168 Z M177.747697,71.6139283 C177.831155,67.1424162 177.3791,63.4255275 176.39152,60.4631508 C175.403939,57.500774 173.908682,56.0196078 171.905702,56.0196078 C169.874902,56.0196078 168.184913,57.2841884 166.835684,59.8133874 C165.486454,62.3425865 164.658846,66.2760608 164.352835,71.6139283 L177.747697,71.6139283 Z"/>
  </g>
</svg>
