<svg xmlns="http://www.w3.org/2000/svg" width="223" height="48" viewBox="0 0 223 48">
  <g fill="none" fill-rule="evenodd">
    <path fill="#12ABBC" fill-rule="nonzero" d="M6.00483181,9.58051729 L57.2698383,0.293749537 C66.3699006,-1.35474658 75.0833287,4.68594127 76.7318248,13.7860035 C76.9102489,14.7709439 77,15.7698989 77,16.7708698 C77,26.019041 69.5028759,33.5161652 60.2547046,33.5161652 C59.2537337,33.5161652 58.2547787,33.4264141 57.2698383,33.24799 L6.00483181,23.9612223 C2.52808558,23.3314021 1.35435828e-13,20.3042022 1.3500312e-13,16.7708698 C1.33001297e-13,13.2375374 2.52808558,10.2103374 6.00483181,9.58051729 Z M60.1292135,30.5128205 C67.535414,30.5128205 73.5393258,24.4629247 73.5393258,17 C73.5393258,9.5370753 67.535414,3.48717949 60.1292135,3.48717949 C52.7230129,3.48717949 46.7191011,9.5370753 46.7191011,17 C46.7191011,24.4629247 52.7230129,30.5128205 60.1292135,30.5128205 Z M7.35393258,21.7948718 C9.98193923,21.7948718 12.1123596,19.6481346 12.1123596,17 C12.1123596,14.3518654 9.98193923,12.2051282 7.35393258,12.2051282 C4.72592594,12.2051282 2.59550562,14.3518654 2.59550562,17 C2.59550562,19.6481346 4.72592594,21.7948718 7.35393258,21.7948718 Z" transform="translate(0 8)"/>
    <path fill="#FFF" d="M90,4.06930693 C94.3613246,4.18811941 100.942682,4.24752475 109.744269,4.24752475 C115.684353,4.24752475 119.907473,4.18811941 122.413755,4.06930693 C122.137472,7.53467079 121.999332,10.6138479 121.999332,13.3069307 C121.999332,15.2277324 122.058535,16.7722714 122.176942,17.9405941 L120.785667,17.9405941 C120.252835,14.8316676 119.532537,12.3663457 118.62475,10.5445545 C117.716963,8.72276317 116.597047,7.42079599 115.264968,6.63861386 C113.932889,5.85643173 112.299884,5.46534653 110.365903,5.46534653 L108.352994,5.46534653 C107.089986,5.46534653 106.177279,5.56930589 105.614845,5.77722772 C105.052412,5.98514955 104.672529,6.3811852 104.475184,6.96534653 C104.277839,7.54950787 104.179168,8.49504297 104.179168,9.8019802 L104.179168,25.1287129 L106.310483,25.1287129 C108.461544,25.1287129 110.089615,24.3316911 111.194747,22.7376238 C112.299879,21.1435564 113.069513,19.2574366 113.503672,17.0792079 L114.894948,17.0792079 C114.756806,19.0792179 114.687736,20.9900899 114.687736,22.8118812 L114.717338,25.7227723 C114.717338,27.8415948 114.84561,30.7227541 115.102159,34.3663366 L113.681282,34.3663366 C112.852433,29.0197752 110.395525,26.3465347 106.310483,26.3465347 L104.179168,26.3465347 L104.179168,40.3366337 C104.179168,41.9604042 104.346908,43.1435606 104.682395,43.8861386 C105.017881,44.6287166 105.624708,45.1287116 106.502893,45.3861386 C107.381079,45.6435656 108.767407,45.7821781 110.661919,45.8019802 L110.661919,47.1386139 C105.688824,47.0198014 101.988661,46.960396 99.5613176,46.960396 C98.3969821,46.960396 95.2099081,47.0198014 90,47.1386139 L90,45.9207921 C91.341946,45.8613858 92.3187891,45.7029716 92.9305586,45.4455446 C93.5423282,45.1881175 93.96168,44.7128748 94.1886268,44.019802 C94.4155735,43.3267292 94.5290452,42.2178294 94.5290452,40.6930693 L94.5290452,10.5148515 C94.5290452,8.99009139 94.4155735,7.88119158 94.1886268,7.18811881 C93.96168,6.49504604 93.5423282,6.01980327 92.9305586,5.76237624 C92.3187891,5.50494921 91.341946,5.34653495 90,5.28712871 L90,4.06930693 Z M133.129535,0 C134.806967,0 136.14396,0.415837426 137.140552,1.24752475 C138.137144,2.07921208 138.635433,3.21781455 138.635433,4.66336634 C138.635433,6.1287202 138.137144,7.27722356 137.140552,8.10891089 C136.14396,8.94059822 134.806967,9.35643564 133.129535,9.35643564 C131.412633,9.35643564 130.06084,8.94059822 129.074115,8.10891089 C128.08739,7.27722356 127.594035,6.1287202 127.594035,4.66336634 C127.594035,3.21781455 128.08739,2.07921208 129.074115,1.24752475 C130.06084,0.415837426 131.412633,0 133.129535,0 Z M137.865791,41.4950495 C137.865791,42.623768 137.994064,43.5049473 138.250612,44.1386139 C138.507161,44.7722804 138.911712,45.2178205 139.464278,45.4752475 C140.016844,45.7326746 140.776611,45.8613861 141.743601,45.8613861 L141.743601,47.1386139 C137.717763,46.9801972 135.033911,46.9009901 133.691965,46.9009901 C132.409223,46.9009901 129.597099,46.9801972 125.255509,47.1386139 L125.255509,45.8613861 C126.222499,45.8613861 126.9872,45.7326746 127.549633,45.4752475 C128.112066,45.2178205 128.516617,44.7722804 128.763298,44.1386139 C129.00998,43.5049473 129.133318,42.623768 129.133318,41.4950495 L129.133318,22.3069307 C129.133318,20.4257332 128.847173,19.0643606 128.274872,18.2227723 C127.702572,17.3811839 126.696127,16.960396 125.255509,16.960396 L125.255509,15.6831683 C126.538251,15.8019808 127.791373,15.8613861 129.014912,15.8613861 C132.586857,15.8613861 135.53712,15.5841612 137.865791,15.029703 L137.865791,41.4950495 Z M171.996439,42.8316832 C172.647677,43.7623809 173.215036,44.475245 173.698531,44.970297 C174.182026,45.465349 174.749385,45.7623757 175.400623,45.8613861 L175.400623,47.1386139 C172.164165,46.9801972 170.00327,46.9009901 168.917872,46.9009901 C167.753537,46.9009901 165.11902,46.9801972 161.014244,47.1386139 L161.014244,45.8613861 C161.645748,45.8613861 162.144037,45.7524763 162.509125,45.5346535 C162.874214,45.3168306 163.056755,45.0198039 163.056755,44.6435644 C163.056755,44.3861373 162.967951,44.0990115 162.790341,43.7821782 L156.455598,34.3663366 L154.353884,37.039604 C153.011938,38.7821869 152.340975,40.3960322 152.340975,41.8811881 C152.340975,43.0297087 152.735659,43.9653429 153.525039,44.6881188 C154.314419,45.4108947 155.380066,45.8217817 156.722012,45.9207921 L156.722012,47.1386139 C154.353872,47.0198014 151.443077,46.960396 147.989539,46.960396 C146.331841,46.960396 144.920846,47.0198014 143.75651,47.1386139 L143.75651,45.9207921 C144.644563,45.6039588 145.517801,45.0792116 146.376252,44.3465347 C147.234703,43.6138577 148.196745,42.5742642 149.262408,41.2277228 L155.745159,33.2970297 L146.835077,20.019802 C146.085166,18.9306876 145.483273,18.168319 145.029379,17.7326733 C144.575486,17.2970275 144.042662,17.0396044 143.430892,16.960396 L143.430892,15.6831683 C146.983103,15.841585 149.390675,15.9207921 150.653684,15.9207921 C151.719347,15.9207921 154.107185,15.841585 157.817271,15.6831683 L157.817271,16.960396 C157.205502,16.960396 156.707213,17.0693058 156.32239,17.2871287 C155.937568,17.5049516 155.745159,17.8019783 155.745159,18.1782178 C155.745159,18.4356449 155.84383,18.7227707 156.041175,19.039604 L161.754284,27.5643564 L164.063209,24.5049505 C165.464359,22.6831592 166.164923,21.1287193 166.164923,19.8415842 C166.164923,18.9900948 165.854109,18.3069333 165.232473,17.7920792 C164.610836,17.2772251 163.698129,16.9801984 162.494325,16.9009901 L162.494325,15.6831683 C164.822996,15.8019808 167.102296,15.8613861 169.332295,15.8613861 C171.049196,15.8613861 172.479926,15.8019808 173.624527,15.6831683 L173.624527,16.9009901 C171.92736,17.4752504 170.072345,19.0395912 168.059426,21.5940594 L162.464723,28.6336634 L171.996439,42.8316832 Z M184.725128,0 C186.402561,0 187.739553,0.415837426 188.736145,1.24752475 C189.732737,2.07921208 190.231026,3.21781455 190.231026,4.66336634 C190.231026,6.1287202 189.732737,7.27722356 188.736145,8.10891089 C187.739553,8.94059822 186.402561,9.35643564 184.725128,9.35643564 C183.008226,9.35643564 181.656433,8.94059822 180.669708,8.10891089 C179.682983,7.27722356 179.189628,6.1287202 179.189628,4.66336634 C179.189628,3.21781455 179.682983,2.07921208 180.669708,1.24752475 C181.656433,0.415837426 183.008226,0 184.725128,0 Z M189.461384,41.4950495 C189.461384,42.623768 189.589657,43.5049473 189.846205,44.1386139 C190.102754,44.7722804 190.507305,45.2178205 191.059871,45.4752475 C191.612437,45.7326746 192.372204,45.8613861 193.339194,45.8613861 L193.339194,47.1386139 C189.313356,46.9801972 186.629504,46.9009901 185.287558,46.9009901 C184.004816,46.9009901 181.192692,46.9801972 176.851102,47.1386139 L176.851102,45.8613861 C177.818092,45.8613861 178.582793,45.7326746 179.145226,45.4752475 C179.707659,45.2178205 180.11221,44.7722804 180.358892,44.1386139 C180.605573,43.5049473 180.728912,42.623768 180.728912,41.4950495 L180.728912,22.3069307 C180.728912,20.4257332 180.442766,19.0643606 179.870465,18.2227723 C179.298165,17.3811839 178.29172,16.960396 176.851102,16.960396 L176.851102,15.6831683 C178.133844,15.8019808 179.386966,15.8613861 180.610505,15.8613861 C184.18245,15.8613861 187.132713,15.5841612 189.461384,15.029703 L189.461384,41.4950495 Z M205.979079,28.3366337 C205.919875,28.930696 205.890274,29.8811816 205.890274,31.1881188 C205.890274,33.8812016 206.265224,36.1138525 207.015135,37.8861386 C207.765046,39.6584247 208.736955,40.9554414 209.930892,41.7772277 C211.12483,42.599014 212.402619,43.009901 213.7643,43.009901 C217.099431,43.009901 219.773415,41.3861549 221.786334,38.1386139 L222.851992,38.4950495 C222.338895,40.1584242 221.544593,41.7079136 220.469063,43.1435644 C219.393533,44.5792151 218.031873,45.7475202 216.384042,46.6485149 C214.736211,47.5495095 212.856528,48 210.744937,48 C207.962372,48 205.520264,47.4059465 203.41854,46.2178218 C201.316816,45.029697 199.678877,43.2227844 198.504674,40.7970297 C197.330471,38.371275 196.743379,35.3564537 196.743379,31.7524752 C196.743379,28.0692885 197.374873,24.9653592 198.637881,22.4405941 C199.900889,19.915829 201.647366,18.0198083 203.877365,16.7524752 C206.107363,15.4851422 208.682677,14.8514851 211.603383,14.8514851 C219.201166,14.8514851 223,19.3464897 223,28.3366337 L205.979079,28.3366337 Z M215.362787,27.1782178 C215.42199,24.0098851 215.101309,21.3762481 214.400734,19.2772277 C213.70016,17.1782073 212.639446,16.1287129 211.218562,16.1287129 C209.777944,16.1287129 208.579091,17.0247435 207.621968,18.8168317 C206.664844,20.6089199 206.077752,23.3960207 205.860672,27.1782178 L215.362787,27.1782178 Z"/>
  </g>
</svg>
