<svg xmlns="http://www.w3.org/2000/svg" width="40" height="40" viewBox="0 0 40 40">
  <g fill="#CFE87E">
    <path d="M19.86,23.8368 C22.0512,23.8368 23.8376,22.0536 23.8376,19.8608 C23.8376,18.9952 23.5544,18.196 23.0856,17.5432 C22.3632,16.5416 21.1888,15.8848 19.8624,15.8848 C18.5352,15.8848 17.3616,16.5408 16.6376,17.5424 C16.1672,18.1952 15.8864,18.9944 15.8856,19.86 C15.8832,22.0528 17.668,23.8368 19.86,23.8368 Z"/>
    <polygon points="28.542 14.997 28.542 11.664 28.542 11.168 28.044 11.17 24.713 11.18 24.726 15.01"/>
    <path d="M19.8608,0 C8.9096,0 0,8.9096 0,19.8608 C0,30.8112 8.9096,39.7216 19.8608,39.7216 C30.8112,39.7216 39.7216,30.8112 39.7216,19.8608 C39.7216,8.9096 30.8128,0 19.8608,0 Z M31.156,17.5432 L31.156,26.7912 C31.156,29.2 29.1976,31.1576 26.7904,31.1576 L12.9312,31.1576 C10.5232,31.1576 8.5656,29.2 8.5656,26.7912 L8.5656,17.5432 L8.5656,12.932 C8.5656,10.524 10.5232,8.5664 12.9312,8.5664 L26.7896,8.5664 C29.1976,8.5664 31.156,10.524 31.156,12.932 L31.156,17.5432 Z"/>
    <path d="M26.0392,19.8608 C26.0392,23.2664 23.268,26.0392 19.8608,26.0392 C16.4536,26.0392 13.6832,23.2664 13.6832,19.8608 C13.6832,19.0416 13.8464,18.2584 14.1376,17.5432 L10.7656,17.5432 L10.7656,26.7912 C10.7656,27.9864 11.736,28.9544 12.9304,28.9544 L26.7888,28.9544 C27.9816,28.9544 28.9536,27.9864 28.9536,26.7912 L28.9536,17.5432 L25.58,17.5432 C25.8736,18.2584 26.0392,19.0416 26.0392,19.8608 Z"/>
  </g>
</svg>
